<?xml version="1.0" encoding="utf-8"?>
<!-- Generator: Adobe Illustrator 21.1.0, SVG Export Plug-In . SVG Version: 6.00 Build 0)  -->
<svg version="1.1" id="圖層_1" xmlns="http://www.w3.org/2000/svg" xmlns:xlink="http://www.w3.org/1999/xlink" x="0px" y="0px"
	 viewBox="0 0 489.9 339.7" style="enable-background:new 0 0 489.9 339.7;" xml:space="preserve">
<style type="text/css">
	.st0{fill:#FFFFFF;}
</style>
<path d="M54.4,184.5c0.1-1.7,1.2-4.4,5.9-5.4l11.1-2.8c39-9.4,100.7-30.9,134.5-50.4c12.9-7.4,25.7-19,42.5-10.9
	c9.8,4.7,19.1,12.4,28.6,17.7c33.6,18.8,77,25.2,116.8,31.4c21.2,3.3,21.2,3.1,42.6,5.1c2.6,0.2,15.9,1.7,18,2.3
	c2.6,0.7,8.6,2.8,7.2,4.9c-1.2,1.8-3.2,3.2-5.3,3.7c-5.9,1.3-20.2,0.4-31.6-1c-61.9-7.7-111.5-16.8-162-48.2
	c-6-3.7-10.8-8.3-17.7-11.1c-14.3-6-20.2,1.6-30.9,7.9c-7.6,4.5-15.5,9-23.3,13.3C137,170.5,82.9,186.3,67.7,187.5
	C63.1,187.7,54.2,186.4,54.4,184.5"/>
<path d="M288,187.2c0.1,0.1,1.9-1.4,2.2-1.5c9.6-5.5,17.8,6.4,13.3,15.4c-2.8,5.6-11.1,7.6-15.4,2.5l-0.3,2.7
	c-2.5,0.8-6.3-0.9-6.4-3.9l0-29c0.4-1.4,4.1-0.1,5.1,0.4c2.5,1.4,1.5,2.8,1.5,5.1c0,1.5,0,2.9,0,4.3C288,184.6,288,185.9,288,187.2
	 M291.4,188.3c-2.4,0.4-3.6,3.4-3.4,5.6c0.3,4.5,7.1,9.9,10.5,5.5c2.8-3.7-1.4-8.1-4.3-10.2C293.2,188.5,292.7,188.1,291.4,188.3"/>
<path d="M165,206.3c-1.2,1.2-6.6-0.9-6.7-3.1l0-19.8c0.5-1.1,2.7-0.4,3.6-0.1c1.2,0.4,2.2,0.9,3,1.8c1.9-1.3,3.9-2.5,6.2-2.7
	c7.4-0.7,10,4.3,10.3,10.8c0.2,4.3-0.1,8.6-0.1,12.9c-0.7,1.6-6.5,0.2-6.9-2.5c-0.5-4.3,1.2-13.6-2-16.9c-2.2-2.4-6-0.2-7.3,2
	l0,16.6C165.2,205.7,165.2,206.1,165,206.3"/>
<path d="M264.6,182.3c16.5-1.6,17.5,26.7-0.7,24.2C249.6,204.5,250.1,183.7,264.6,182.3 M263,186.2c-3.5,0.2-4.5,4.6-3.9,7.5
	c0.9,4.1,7.4,10.1,11.2,5.9c3.4-3.6,0.1-8-2.8-10.6C266.6,188.2,264.4,186.2,263,186.2"/>
<path d="M193.5,192.1c0.1-0.2,0.5-0.2,0.7-0.2c1.1,0.2,3.4,1.5,4.7,1.9c1.3,0.4,3.2,1.1,4.5,0c1.2-1,0.2-2.3-0.7-3.1
	c-1-0.9-4.3-3.2-5.5-3.7c-3.5-1.5-5.9,2-6.1,5.1c-0.5,5.9,6,10.5,11.5,9.8c0.8-0.1,3-1.2,3.4-1.1c1.9,0.5-1.6,3.5-2.3,4
	c-8.7,5.3-20-1.2-17.9-11.9c1.4-7.1,10.4-12.5,17.1-9.6c9.5,4.1,5.7,18.8-6,13.1C195.8,196,192.2,193.5,193.5,192.1"/>
<path d="M238.5,186.2c-0.5-0.5-2.1-0.1-2.8-0.2c-2-0.2-4.5-3.3-1.4-3.5c0.9-0.1,3.8,0.7,4.3-0.2c0.1-1.9,0-3.9-0.1-5.8
	c-0.1-1-1-3.2,0.5-3.5c1.3-0.2,5.1,1.1,6,2.2c0.9,1.2,0.2,4.7,0.5,6.3c0,0.3,0.2,0.6,0.4,0.8c0.8,0.5,4.8,0,6.1,0.2
	c1.8,0.2-0.1,2.4-0.9,2.9c-1.9,1.2-5.3-1-5.6,2c-0.3,3.5-0.3,10,0,13.6c0.2,3.3,1.9,5.6,4.6,7.3c0.5,0.3,2.7,0.9,1.5,1.8
	c-1.1,0.8-4.3,0-5.6-0.5c-10.8-3.6-6.6-13.7-7.3-22.5C238.7,186.9,238.7,186.4,238.5,186.2"/>
<path d="M212.3,198.2l1-0.1c2.3,1.7,8.3,6.3,11.1,4c1.9-1.5-1-3.3-2.1-4.1c-3.7-2.6-12.4-6.2-8.1-12c3.3-4.5,11.5-4.2,15,0.1
	c0.8,1,3,5.2,0,4c-1-0.4-3-2.1-4.2-2.8c-1.4-0.8-5-2.6-6.2-0.7c-0.8,1.2,0.2,1.8,1.1,2.4c4.2,3.1,15.6,7.3,11,14.1
	c-3.5,5.2-14.1,4.5-17.5-0.7C212.9,201.6,211.6,199,212.3,198.2"/>
<path d="M315.2,206.3c-2,0.9-5.8-0.5-6.3-2.7c-0.4-2-0.1-6-0.1-8.3c0-2.7,0-5.6,0-8.3c0-0.7-0.5-1.2,0.2-1.9
	c0.8-0.9,3.4-0.2,4.5,0.2c1.1,0.4,1.8,0.9,2.1,2.1c0.5,2.6-0.1,6.3-0.1,8.9c0,2.9,0.3,6.2,0,9C315.4,205.7,315.4,206,315.2,206.3"/>
<path d="M310,177.9c2.3-0.5,5.3,1.1,4.9,3.7c-0.3,2-5.8,2.1-6.5-0.4C308.1,180,308.7,178.2,310,177.9"/>
<path class="st0" d="M291.4,188.3c1.3-0.2,1.8,0.1,2.7,0.8c2.9,2.1,7.2,6.6,4.3,10.2c-3.4,4.5-10.2-0.9-10.5-5.5
	C287.8,191.8,289,188.7,291.4,188.3"/>
<path class="st0" d="M263,186.2c1.3-0.1,3.6,1.9,4.6,2.8c2.8,2.6,6.1,7,2.8,10.6c-3.8,4.1-10.3-1.8-11.2-5.9
	C258.5,190.9,259.6,186.4,263,186.2"/>
</svg>
